<?xml version="1.0" encoding="utf-8"?><svg viewBox="0 0 20 20" xmlns="http://www.w3.org/2000/svg" xmlns:xlink="http://www.w3.org/1999/xlink"><style>:root>svg{display:none}:root>svg:target{display:block}</style><svg viewBox="0 0 11 8" id="arrow_btn" xmlns="http://www.w3.org/2000/svg"><path d="M10.1 4.216l-8.878-.1m5.203-3.055L10.1 4.216 6.425 1.06zM10.1 4.216L6.87 7.294l3.23-3.078z"/></svg><svg viewBox="0 0 20 20" id="close" xmlns="http://www.w3.org/2000/svg"><path fill-rule="evenodd" clip-rule="evenodd" d="M10.03 8.981L6.31 5.262a.717.717 0 10-1.014 1.015l4.733 4.732 4.733-4.732a.717.717 0 10-1.014-1.015l-3.719 3.72z"/><path fill-rule="evenodd" clip-rule="evenodd" d="M10.026 11.042l3.718 3.719a.717.717 0 101.014-1.014l-4.732-4.733-4.733 4.733a.717.717 0 001.014 1.014l3.719-3.719z"/></svg><svg viewBox="0 0 16 15" id="envelope" xmlns="http://www.w3.org/2000/svg"><path d="M14.344 9.814l-2.249-.232a1.936 1.936 0 00-.783.077c-.252.08-.48.209-.668.38l-1.63 1.473c-2.512-1.156-4.555-3.005-5.833-5.28L4.82 4.752c.38-.345.566-.825.504-1.314l-.256-2.019A1.56 1.56 0 004.484.405 1.882 1.882 0 003.305 0H1.774C.774 0-.06.753.004 1.658.471 8.5 6.517 13.964 14.068 14.388c1 .057 1.833-.697 1.833-1.602V11.4c.009-.809-.664-1.49-1.558-1.586z"/></svg><svg viewBox="0 0 18 13" id="handset" xmlns="http://www.w3.org/2000/svg"><path d="M17.704 1.602c0-.881-.796-1.602-1.77-1.602H1.77C.797 0 0 .721 0 1.602v9.614c0 .881.797 1.602 1.77 1.602h14.164c.974 0 1.77-.72 1.77-1.602V1.602zm-1.77 0L8.852 5.608 1.77 1.602h14.164zm0 9.614H1.77V3.205L8.852 7.21l7.082-4.005v8.011z"/></svg><svg viewBox="0 0 20 20" id="telegram" xmlns="http://www.w3.org/2000/svg"><path d="M10 0C4.48 0 0 4.48 0 10s4.48 10 10 10 10-4.48 10-10S15.52 0 10 0zm4.64 6.8c-.15 1.58-.8 5.42-1.13 7.19-.14.75-.42 1-.68 1.03-.58.05-1.02-.38-1.58-.75-.88-.58-1.38-.94-2.23-1.5-.99-.65-.35-1.01.22-1.59.15-.15 2.71-2.48 2.76-2.69a.2.2 0 00-.05-.18c-.06-.05-.14-.03-.21-.02-.09.02-1.49.95-4.22 2.79-.4.27-.76.41-1.08.4-.36-.01-1.04-.2-1.55-.37-.63-.2-1.12-.31-1.08-.66.02-.18.27-.36.74-.55 2.92-1.27 4.86-2.11 5.83-2.51 2.78-1.16 3.35-1.36 3.73-1.36.08 0 .27.02.39.12.1.08.13.19.14.27-.01.06.01.24 0 .38z"/></svg><svg viewBox="0 0 20 20" id="vk" xmlns="http://www.w3.org/2000/svg"><path d="M13.073 0H6.937C1.333 0 0 1.333 0 6.927v6.136C0 18.666 1.323 20 6.927 20h6.136C18.666 20 20 18.677 20 13.073V6.937C20 1.333 18.677 0 13.073 0zm3.073 14.27h-1.459c-.552 0-.718-.447-1.708-1.437-.864-.833-1.229-.937-1.448-.937-.302 0-.385.083-.385.5v1.312c0 .355-.115.563-1.042.563a5.692 5.692 0 01-4.448-2.667 11.626 11.626 0 01-2.302-4.833c0-.219.083-.417.5-.417h1.458c.375 0 .51.167.657.552.708 2.084 1.916 3.896 2.406 3.896.188 0 .27-.083.27-.552V8.104c-.062-.979-.582-1.062-.582-1.416a.36.36 0 01.374-.334h2.292c.313 0 .417.156.417.531v2.896c0 .313.135.417.229.417.188 0 .333-.104.677-.448a11.999 11.999 0 001.792-2.98.628.628 0 01.635-.416h1.459c.437 0 .53.219.437.531a18.203 18.203 0 01-1.958 3.365c-.157.24-.22.365 0 .646.145.219.656.646 1 1.052.5.499.915 1.076 1.229 1.708.125.406-.084.614-.5.614z"/></svg></svg>